REM DIRINDEX 1\2\6,1\2\7,1\2\8,1\2\9,1\3\10,1\3\11,1\4\12,1\4\13,1\4\14,1\5\15,1\5\16,1\5\17
REM DIRNAME folder01,folder02,folder03,folder04,folder05,folder06,folder07,folder08,folder09,folder10,folder11,folder12,folder13,folder14,folder15,folder16,folder17
TITLE ""
FILE "1400_3_sec07_0684_0700.mp3" MP3
  TRACK 01 AUDIO
    TITLE "0:"
    INDEX 01 00:00:00
  TRACK 02 AUDIO
    TITLE "17:cjc029_5801"
    INDEX 01 00:00:15
  TRACK 03 AUDIO
    TITLE "0:"
    INDEX 01 00:01:17
  TRACK 04 AUDIO
    TITLE "16:cjc029_5802"
    INDEX 01 00:01:21
  TRACK 05 AUDIO
    TITLE "0:"
    INDEX 01 00:02:30
  TRACK 06 AUDIO
    TITLE "17:cjc029_5803"
    INDEX 01 00:03:14
  TRACK 07 AUDIO
    TITLE "0:"
    INDEX 01 00:04:29
  TRACK 08 AUDIO
    TITLE "16:cjc029_5804"
    INDEX 01 00:04:36
  TRACK 09 AUDIO
    TITLE "0:"
    INDEX 01 00:05:56
  TRACK 10 AUDIO
    TITLE "17:cjc029_5805"
    INDEX 01 00:06:39
  TRACK 11 AUDIO
    TITLE "0:"
    INDEX 01 00:08:03
  TRACK 12 AUDIO
    TITLE "16:cjc029_5806"
    INDEX 01 00:08:09
  TRACK 13 AUDIO
    TITLE "0:"
    INDEX 01 00:09:14
  TRACK 14 AUDIO
    TITLE "17:cjc029_5807"
    INDEX 01 00:10:00
  TRACK 15 AUDIO
    TITLE "0:"
    INDEX 01 00:12:26
  TRACK 16 AUDIO
    TITLE "16:cjc029_5808"
    INDEX 01 00:12:32
  TRACK 17 AUDIO
    TITLE "0:"
    INDEX 01 00:13:41
  TRACK 18 AUDIO
    TITLE "17:cjc029_5809"
    INDEX 01 00:14:25
  TRACK 19 AUDIO
    TITLE "0:"
    INDEX 01 00:15:68
  TRACK 20 AUDIO
    TITLE "16:cjc029_5810"
    INDEX 01 00:15:70
  TRACK 21 AUDIO
    TITLE "0:"
    INDEX 01 00:17:18
  TRACK 22 AUDIO
    TITLE "17:cjc029_5811"
    INDEX 01 00:18:01
  TRACK 23 AUDIO
    TITLE "0:"
    INDEX 01 00:19:20
  TRACK 24 AUDIO
    TITLE "16:cjc029_5812"
    INDEX 01 00:19:30
  TRACK 25 AUDIO
    TITLE "0:"
    INDEX 01 00:20:59
  TRACK 26 AUDIO
    TITLE "17:cjc029_5813"
    INDEX 01 00:21:45
  TRACK 27 AUDIO
    TITLE "0:"
    INDEX 01 00:22:62
  TRACK 28 AUDIO
    TITLE "16:cjc029_5814"
    INDEX 01 00:22:68
  TRACK 29 AUDIO
    TITLE "0:"
    INDEX 01 00:24:14
  TRACK 30 AUDIO
    TITLE "17:cjc029_5815"
    INDEX 01 00:24:74
  TRACK 31 AUDIO
    TITLE "0:"
    INDEX 01 00:26:11
  TRACK 32 AUDIO
    TITLE "16:cjc029_5816"
    INDEX 01 00:26:18
  TRACK 33 AUDIO
    TITLE "0:"
    INDEX 01 00:27:20
  TRACK 34 AUDIO
    TITLE "17:cjc029_5817"
    INDEX 01 00:28:06
  TRACK 35 AUDIO
    TITLE "0:"
    INDEX 01 00:29:44
  TRACK 36 AUDIO
    TITLE "16:cjc029_5818"
    INDEX 01 00:29:50
  TRACK 37 AUDIO
    TITLE "0:"
    INDEX 01 00:30:54
  TRACK 38 AUDIO
    TITLE "17:cjc029_5819"
    INDEX 01 00:31:41
  TRACK 39 AUDIO
    TITLE "0:"
    INDEX 01 00:32:52
  TRACK 40 AUDIO
    TITLE "16:cjc029_5820"
    INDEX 01 00:32:58
  TRACK 41 AUDIO
    TITLE "0:"
    INDEX 01 00:33:56
  TRACK 42 AUDIO
    TITLE "17:cjc029_5821"
    INDEX 01 00:34:43
  TRACK 43 AUDIO
    TITLE "0:"
    INDEX 01 00:37:50
  TRACK 44 AUDIO
    TITLE "16:cjc029_5822"
    INDEX 01 00:37:56
  TRACK 45 AUDIO
    TITLE "0:"
    INDEX 01 00:38:65
  TRACK 46 AUDIO
    TITLE "17:cjc029_5823"
    INDEX 01 00:39:49
  TRACK 47 AUDIO
    TITLE "0:"
    INDEX 01 00:40:68
  TRACK 48 AUDIO
    TITLE "16:cjc029_5824"
    INDEX 01 00:40:73
  TRACK 49 AUDIO
    TITLE "0:"
    INDEX 01 00:42:12
  TRACK 50 AUDIO
    TITLE "17:cjc029_5825"
    INDEX 01 00:42:68
  TRACK 51 AUDIO
    TITLE "0:"
    INDEX 01 00:44:50
  TRACK 52 AUDIO
    TITLE "16:cjc029_5826"
    INDEX 01 00:44:58
  TRACK 53 AUDIO
    TITLE "0:"
    INDEX 01 00:46:11
  TRACK 54 AUDIO
    TITLE "17:cjc029_5827"
    INDEX 01 00:46:70
  TRACK 55 AUDIO
    TITLE "0:"
    INDEX 01 00:48:24
  TRACK 56 AUDIO
    TITLE "16:cjc029_5828"
    INDEX 01 00:48:30
  TRACK 57 AUDIO
    TITLE "0:"
    INDEX 01 00:49:29
  TRACK 58 AUDIO
    TITLE "17:cjc029_5829"
    INDEX 01 00:50:15
  TRACK 59 AUDIO
    TITLE "0:"
    INDEX 01 00:51:18
  TRACK 60 AUDIO
    TITLE "16:cjc029_5830"
    INDEX 01 00:51:26
  TRACK 61 AUDIO
    TITLE "0:"
    INDEX 01 00:52:26
  TRACK 62 AUDIO
    TITLE "17:cjc029_5831"
    INDEX 01 00:53:08
  TRACK 63 AUDIO
    TITLE "0:"
    INDEX 01 00:54:48
  TRACK 64 AUDIO
    TITLE "16:cjc029_5832"
    INDEX 01 00:54:54
  TRACK 65 AUDIO
    TITLE "0:"
    INDEX 01 00:55:59
  TRACK 66 AUDIO
    TITLE "17:cjc029_5833"
    INDEX 01 00:56:45
  TRACK 67 AUDIO
    TITLE "0:"
    INDEX 01 00:57:66
  TRACK 68 AUDIO
    TITLE "16:cjc029_5834"
    INDEX 01 00:57:72
  TRACK 69 AUDIO
    TITLE "0:"
    INDEX 01 00:59:02
